<?xml version="1.0" encoding="utf-8"?>
<!-- Generator: Adobe Illustrator 26.3.1, SVG Export Plug-In . SVG Version: 6.00 Build 0)  -->
<svg version="1.1" id="Capa_1" xmlns="http://www.w3.org/2000/svg" xmlns:xlink="http://www.w3.org/1999/xlink" x="0px" y="0px"
	 viewBox="0 0 966.64 318.64" style="enable-background:new 0 0 966.64 318.64;" xml:space="preserve">
<style type="text/css">
	.st0{fill:#FFFFFF;}
</style>
<g id="logo">
	<g id="titulo">
		<g id="las_margaritas">
			<g>
				<path d="M141.48,167.78v-1.21l6.03-3.01v-41.31l-6.03-3.02v-1.21h19.6v1.21l-6.79,3.02v41.38h18.32l5.12-12.59h1.21v16.73
					H141.48z"/>
				<path d="M185.2,167.78v-1.21l4.82-2.49l19.3-46.44h3.39l19,46.21l5.05,2.71v1.21h-18.69v-1.21l6.63-2.56l-5.65-13.94h-18.32
					l-5.58,13.94l6.33,2.56v1.21H185.2z M202.46,145.92h14.93l-7.46-18.54L202.46,145.92z"/>
				<path d="M259.15,168.53c-3.12,0-5.75-0.29-7.92-0.87s-4.4-1.44-6.71-2.6l-0.75-12.36h1.21l3.69,7.99
					c3.47,2.86,6.96,4.3,10.48,4.3c2.96,0,5.29-0.78,6.97-2.34c1.68-1.56,2.53-3.67,2.53-6.33c0-3.27-1.09-5.59-3.28-6.97
					c-2.19-1.38-5.16-3.03-8.93-4.94c-3.52-1.76-6.24-3.55-8.18-5.39c-1.93-1.83-2.9-4.48-2.9-7.95c0-2.26,0.72-4.45,2.15-6.56
					c1.43-2.11,3.3-3.84,5.62-5.2c2.31-1.36,4.72-2.04,7.24-2.04c2.31,0,4.45,0.28,6.41,0.83c1.96,0.55,3.97,1.33,6.03,2.34
					l0.75,12.06h-1.21l-3.47-7.92c-1.76-1.31-3.29-2.25-4.6-2.83c-1.31-0.58-2.82-0.87-4.52-0.87c-2.21,0-4.03,0.75-5.47,2.26
					c-1.43,1.51-2.15,3.37-2.15,5.58c0,2.56,0.78,4.56,2.34,5.99c1.56,1.43,3.99,2.95,7.31,4.56c4.57,2.21,7.94,4.3,10.1,6.26
					c2.16,1.96,3.24,4.85,3.24,8.67c0,3.12-0.85,5.74-2.56,7.88c-1.71,2.14-3.8,3.74-6.26,4.82
					C263.84,167.99,261.46,168.53,259.15,168.53z"/>
				<path d="M302.64,167.78v-1.21l5.95-3.01l1.58-41.23l-6.48-3.09v-1.21h13.94l17.41,40.1l17.34-40.1h13.27v1.21l-6.33,3.02
					l1.28,41.31l5.28,3.01v1.21h-17.34v-1.21l5.58-2.94l-0.75-37.16l-18.02,41.68h-3.39L314.24,127l-0.98,36.63l6.11,2.94v1.21
					H302.64z"/>
				<path d="M372.89,167.78v-1.21l4.82-2.49l19.3-46.44h3.39l19,46.21l5.05,2.71v1.21h-18.69v-1.21l6.63-2.56l-5.65-13.94h-18.32
					l-5.58,13.94l6.33,2.56v1.21H372.89z M390.15,145.92h14.93l-7.46-18.54L390.15,145.92z"/>
				<path d="M431.84,167.78v-1.21l6.03-3.01v-41.31l-6.03-3.02v-1.21h19.45c5.28,0,9.43,1.09,12.47,3.28
					c3.04,2.19,4.56,5.19,4.56,9.01c0,2.82-0.95,5.34-2.86,7.58c-1.91,2.24-4.45,3.93-7.61,5.09l14.32,20.88l4.97,2.71v1.21h-10.85
					l-14.62-22.84h-7.01v18.54l5.65,3.09v1.21H431.84z M449.55,122.17h-4.9v18.62H450c3.16,0,5.79-0.89,7.88-2.68
					c2.08-1.78,3.13-4.06,3.13-6.82c0-2.82-1.03-5.04-3.09-6.67C455.86,122.99,453.07,122.17,449.55,122.17z"/>
				<path d="M507.14,168.53c-7.24,0-13.23-2.29-17.98-6.86c-4.75-4.57-7.12-10.38-7.12-17.41c0-5.13,1.21-9.72,3.62-13.8
					c2.41-4.07,5.66-7.29,9.73-9.65s8.57-3.54,13.49-3.54c3.97,0,7.1,0.34,9.38,1.02c2.29,0.68,4.51,1.55,6.67,2.6l0.37,12.44h-1.2
					l-4.9-8.44c-2.11-1.45-3.91-2.46-5.39-3.01s-3.18-0.83-5.09-0.83c-5.83,0-10.62,1.85-14.36,5.54
					c-3.74,3.69-5.62,8.33-5.62,13.91c0,7.49,2,13.3,6,17.45c3.99,4.15,8.86,6.22,14.59,6.22c1.66,0,3.25-0.1,4.79-0.3
					c1.53-0.2,3.13-0.63,4.79-1.28v-12.44l-6.71-3.01v-1.21h18.7v1.21l-5.2,3.24v11.83c-2.31,1.91-5.17,3.44-8.56,4.6
					C513.74,167.95,510.41,168.53,507.14,168.53z"/>
				<path d="M535.63,167.78v-1.21l4.83-2.49l19.3-46.44h3.39l18.99,46.21l5.05,2.71v1.21h-18.7v-1.21l6.64-2.56l-5.66-13.94h-18.32
					l-5.58,13.94l6.33,2.56v1.21H535.63z M552.89,145.92h14.93l-7.46-18.54L552.89,145.92z"/>
				<path d="M594.58,167.78v-1.21l6.03-3.01v-41.31l-6.03-3.02v-1.21h19.45c5.28,0,9.43,1.09,12.47,3.28
					c3.04,2.19,4.56,5.19,4.56,9.01c0,2.82-0.95,5.34-2.86,7.58c-1.91,2.24-4.44,3.93-7.61,5.09l14.32,20.88l4.97,2.71v1.21h-10.85
					l-14.62-22.84h-7.01v18.54l5.65,3.09v1.21H594.58z M612.3,122.17h-4.9v18.62h5.35c3.17,0,5.79-0.89,7.88-2.68
					c2.08-1.78,3.13-4.06,3.13-6.82c0-2.82-1.03-5.04-3.09-6.67C618.6,122.99,615.81,122.17,612.3,122.17z"/>
				<path d="M644.78,167.78v-1.21l6.03-3.01v-41.31l-6.03-3.02v-1.21h18.85v1.21l-6.03,3.02v41.31l6.03,3.01v1.21H644.78z"/>
				<path d="M683.38,167.78v-1.21l7.54-3.01v-41.38h-12.28l-5.13,11.08h-1.2v-15.23h44.02v15.23h-1.2l-5.12-11.08H697.7v41.38
					l7.54,3.01v1.21H683.38z"/>
				<path d="M719.94,167.78v-1.21l4.83-2.49l19.3-46.44h3.39l18.99,46.21l5.05,2.71v1.21h-18.7v-1.21l6.64-2.56l-5.66-13.94h-18.32
					l-5.58,13.94l6.33,2.56v1.21H719.94z M737.2,145.92h14.93l-7.46-18.54L737.2,145.92z"/>
				<path d="M793.88,168.53c-3.11,0-5.75-0.29-7.91-0.87s-4.4-1.44-6.71-2.6l-0.75-12.36h1.2l3.69,7.99
					c3.46,2.86,6.96,4.3,10.48,4.3c2.96,0,5.29-0.78,6.97-2.34c1.68-1.56,2.53-3.67,2.53-6.33c0-3.27-1.1-5.59-3.28-6.97
					c-2.19-1.38-5.17-3.03-8.93-4.94c-3.52-1.76-6.24-3.55-8.18-5.39c-1.94-1.83-2.9-4.48-2.9-7.95c0-2.26,0.71-4.45,2.15-6.56
					c1.43-2.11,3.3-3.84,5.62-5.2c2.31-1.36,4.72-2.04,7.24-2.04c2.31,0,4.45,0.28,6.41,0.83c1.96,0.55,3.97,1.33,6.03,2.34
					l0.75,12.06h-1.21l-3.46-7.92c-1.76-1.31-3.29-2.25-4.6-2.83c-1.31-0.58-2.82-0.87-4.52-0.87c-2.21,0-4.03,0.75-5.46,2.26
					c-1.43,1.51-2.15,3.37-2.15,5.58c0,2.56,0.78,4.56,2.34,5.99c1.56,1.43,4,2.95,7.31,4.56c4.57,2.21,7.94,4.3,10.1,6.26
					c2.16,1.96,3.24,4.85,3.24,8.67c0,3.12-0.86,5.74-2.56,7.88c-1.71,2.14-3.8,3.74-6.26,4.82
					C798.58,167.99,796.2,168.53,793.88,168.53z"/>
			</g>
		</g>
		<g id="dptos">
			<g>
				<path d="M274.3,211.86h10.43c2.71,0,5.1,0.54,7.17,1.63c2.07,1.09,3.68,2.6,4.83,4.54c1.15,1.94,1.72,4.15,1.72,6.64
					s-0.57,4.7-1.72,6.64c-1.15,1.94-2.76,3.45-4.83,4.54c-2.07,1.09-4.46,1.63-7.17,1.63H274.3V211.86z M284.58,235.13
					c2.24,0,4.21-0.44,5.89-1.34c1.68-0.89,2.99-2.12,3.91-3.69c0.93-1.57,1.39-3.38,1.39-5.43s-0.46-3.86-1.39-5.43
					c-0.93-1.57-2.23-2.81-3.91-3.69c-1.68-0.89-3.65-1.34-5.89-1.34h-7.57v20.92H284.58z"/>
				<path d="M328.44,235.13v2.34h-18.11v-25.61h17.56v2.34h-14.85v9.11h13.24v2.31h-13.24v9.51H328.44z"/>
				<path d="M357.89,214.2c1.85,1.56,2.78,3.71,2.78,6.44s-0.93,4.87-2.78,6.42c-1.85,1.55-4.42,2.32-7.68,2.32h-6.88v8.08h-2.71
					v-25.61h9.58C353.47,211.86,356.03,212.64,357.89,214.2z M355.95,225.34c1.34-1.11,2.01-2.68,2.01-4.7
					c0-2.07-0.67-3.66-2.01-4.77c-1.34-1.11-3.28-1.66-5.82-1.66h-6.8v12.8h6.8C352.67,227.01,354.61,226.45,355.95,225.34z"/>
				<path d="M387.11,230.63h-14.27l-3.07,6.84h-2.82l11.71-25.61h2.67l11.71,25.61h-2.85L387.11,230.63z M386.13,228.43l-6.14-13.76
					l-6.15,13.76H386.13z"/>
				<path d="M420.59,237.47l-5.85-8.23c-0.66,0.07-1.34,0.11-2.05,0.11h-6.88v8.12h-2.71v-25.61h9.58c3.27,0,5.83,0.78,7.68,2.34
					c1.85,1.56,2.78,3.71,2.78,6.44c0,2-0.51,3.69-1.52,5.07c-1.01,1.38-2.46,2.37-4.34,2.98l6.26,8.78H420.59z M418.43,225.36
					c1.34-1.12,2.01-2.7,2.01-4.72c0-2.07-0.67-3.66-2.01-4.77c-1.34-1.11-3.28-1.66-5.82-1.66h-6.8v12.84h6.8
					C415.15,227.04,417.09,226.48,418.43,225.36z"/>
				<path d="M439.97,214.2h-9v-2.34h20.7v2.34h-9v23.27h-2.71V214.2z"/>
				<path d="M476.59,230.63h-14.27l-3.07,6.84h-2.82l11.71-25.61h2.67l11.71,25.61h-2.85L476.59,230.63z M475.6,228.43l-6.14-13.76
					l-6.15,13.76H475.6z"/>
				<path d="M519.18,211.86v25.61h-2.6v-20.49l-10.06,17.23h-1.28l-10.06-17.12v20.38h-2.59v-25.61h2.23l11.12,18.99l11.01-18.99
					H519.18z"/>
				<path d="M551.44,235.13v2.34h-18.11v-25.61h17.56v2.34h-14.85v9.11h13.24v2.31h-13.24v9.51H551.44z"/>
				<path d="M585.02,211.86v25.61h-2.23l-16.46-20.78v20.78h-2.71v-25.61h2.23l16.5,20.78v-20.78H585.02z"/>
				<path d="M604.15,214.2h-9v-2.34h20.71v2.34h-9v23.27h-2.71V214.2z"/>
				<path d="M629.92,235.99c-2.06-1.13-3.67-2.69-4.83-4.66c-1.16-1.97-1.74-4.19-1.74-6.66s0.58-4.68,1.74-6.66
					s2.77-3.53,4.83-4.66c2.06-1.13,4.36-1.7,6.9-1.7s4.82,0.56,6.86,1.68c2.04,1.12,3.64,2.68,4.81,4.66
					c1.17,1.99,1.75,4.21,1.75,6.68s-0.59,4.69-1.75,6.68c-1.17,1.99-2.77,3.54-4.81,4.66c-2.03,1.12-4.32,1.68-6.86,1.68
					S631.98,237.12,629.92,235.99z M642.3,233.9c1.63-0.92,2.91-2.18,3.84-3.81c0.92-1.62,1.39-3.43,1.39-5.43
					c0-2-0.46-3.81-1.39-5.43c-0.93-1.62-2.21-2.89-3.84-3.81c-1.63-0.92-3.46-1.37-5.49-1.37c-2.03,0-3.86,0.46-5.5,1.37
					c-1.65,0.91-2.94,2.18-3.88,3.81c-0.94,1.62-1.41,3.43-1.41,5.43c0,2,0.47,3.81,1.41,5.43s2.23,2.89,3.88,3.81
					c1.64,0.91,3.48,1.37,5.5,1.37C638.84,235.28,640.67,234.82,642.3,233.9z"/>
				<path d="M663.72,236.78c-1.75-0.61-3.09-1.41-4.04-2.41l1.06-2.09c0.92,0.93,2.16,1.68,3.69,2.25c1.54,0.58,3.12,0.86,4.76,0.86
					c2.29,0,4.01-0.42,5.16-1.26c1.15-0.84,1.72-1.93,1.72-3.27c0-1.02-0.31-1.84-0.93-2.45c-0.62-0.61-1.38-1.08-2.29-1.41
					s-2.16-0.69-3.77-1.08c-1.93-0.49-3.46-0.96-4.61-1.41c-1.15-0.45-2.13-1.14-2.95-2.07c-0.82-0.93-1.22-2.18-1.22-3.77
					c0-1.29,0.34-2.47,1.02-3.53c0.68-1.06,1.73-1.91,3.14-2.54c1.42-0.63,3.17-0.95,5.27-0.95c1.46,0,2.9,0.2,4.3,0.6
					c1.4,0.4,2.61,0.96,3.64,1.66l-0.91,2.16c-1.07-0.71-2.22-1.24-3.44-1.59c-1.22-0.35-2.41-0.53-3.58-0.53
					c-2.25,0-3.93,0.43-5.07,1.3c-1.14,0.87-1.7,1.98-1.7,3.35c0,1.02,0.31,1.85,0.93,2.47c0.62,0.62,1.4,1.1,2.34,1.43
					s2.2,0.69,3.79,1.08c1.88,0.46,3.39,0.92,4.55,1.37c1.16,0.45,2.14,1.13,2.95,2.05c0.8,0.91,1.21,2.15,1.21,3.71
					c0,1.29-0.35,2.47-1.05,3.53c-0.69,1.06-1.76,1.9-3.2,2.52c-1.44,0.62-3.21,0.93-5.31,0.93
					C667.29,237.69,665.47,237.38,663.72,236.78z"/>
			</g>
		</g>
		<g>
			<line class="st0" x1="826.4" y1="191.74" x2="124.79" y2="191.74"/>
			<rect x="124.79" y="191.16" width="701.61" height="1.15"/>
		</g>
	</g>
</g>
</svg>
